<?xml version="1.0" standalone="no"?>
<!DOCTYPE svg PUBLIC "-//W3C//DTD SVG 20010904//EN"
 "http://www.w3.org/TR/2001/REC-SVG-20010904/DTD/svg10.dtd">
<svg version="1.0" xmlns="http://www.w3.org/2000/svg"
 width="500.000000pt" height="500.000000pt" viewBox="0 0 500.000000 500.000000"
 preserveAspectRatio="xMidYMid meet">

<g transform="translate(0.000000,500.000000) scale(0.100000,-0.100000)"
fill="#000000" stroke="none">
<path d="M1560 3624 c-57 -11 -160 -47 -160 -57 0 -5 12 -6 28 -3 55 14 188
18 228 7 54 -14 127 -64 164 -111 l30 -38 -264 -634 c-187 -447 -274 -644
-297 -672 -33 -40 -97 -75 -136 -76 -13 0 -23 -4 -23 -10 0 -6 77 -10 210 -10
196 0 258 9 175 24 -44 9 -78 57 -70 97 3 14 39 110 79 215 l74 189 292 0 292
0 58 -165 c70 -201 88 -246 141 -352 60 -120 130 -217 217 -300 146 -139 298
-192 452 -157 25 6 101 14 170 19 267 20 439 98 556 253 95 126 141 263 151
450 7 134 -10 166 -21 40 -11 -124 -34 -211 -83 -312 -36 -75 -59 -108 -117
-165 -120 -120 -240 -176 -417 -196 -159 -18 -335 15 -456 86 -107 62 -228
205 -280 329 -68 162 -69 401 -4 576 47 126 160 260 276 328 325 194 783 54
889 -271 3 -10 10 -18 16 -18 6 0 9 8 6 18 -2 9 -13 77 -22 150 l-18 133 -69
34 c-190 95 -455 129 -667 85 -263 -54 -495 -251 -576 -491 -13 -39 -24 -77
-24 -85 0 -46 -28 19 -124 294 -137 388 -186 510 -242 593 -92 138 -191 200
-329 205 -44 1 -91 0 -105 -2z m383 -385 c56 -141 215 -619 208 -624 -16 -9
-521 -4 -521 6 0 9 257 675 267 692 8 14 19 -3 46 -74z"/>
</g>
</svg>
